{"title":"Jack the Giant Slayer 2013 DVDrip English Klam","uid":11474891,"size":2103966096,"categoryP":"video","categoryS":"movies","magnet":"?xt=urn:btih:034710cfaff0ac1901d1ab80e902fbdacb2be4ce&amp;dn=Jack+the+Giant+Slayer+2013+DVDrip+English+Klam&amp;tr=udp%3A%2F%2Ftracker.openbittorrent.com%3A80&amp;tr=udp%3A%2F%2Fopen.demonii.com%3A1337&amp;tr=udp%3A%2F%2Ftracker.coppersurfer.tk%3A6969&amp;tr=udp%3A%2F%2Fexodus.desync.com%3A6969","seeders":2,"leechers":0,"uploader":"Klambake","files":-1,"time":1416136402,"description":"With: Ewan McGregor, Nicholas Hoult and Stanley Tucci\n\nDe film vertelt het verhaal van een eeuwenoude oorlog die opnieuw oplaait wanneer een jonge boerenknecht onbewust een poort opent tussen onze wereld en die van een angstaanjagend ras van reuzen. Als de reuzen weer voor het eerst in deze eeuw worden losgelaten op Aarde streven ze er naar om het land terug te winnen wat ze ooit hebben verloren. Jack probeert hier met gevaar voor eigen leven een stokje voor te steken. Vechtend voor een koninkrijk, de bevolking, en de liefde van een dappere prinses komt hij oog in oog te staan met de niet te stuiten krijgers, waarvan hij dacht dat ze alleen in legendes voorkwamen. Nu heeft hij de kans om zelf een legende te worden.\n\nThe ancient war between humans and a race of giants is reignited when Jack, a young farmhand fighting for a kingdom and the love of a princess, opens a gateway between the two worlds.\n &lt;a href=&quot;\nhttp://www.imdb.com/title/tt1351685&quot; rel=&quot;nofollow&quot; target=&quot;_NEW&quot;&gt;\nhttp://www.imdb.com/title/tt1351685&lt;/a&gt;\t\n\n--------------------- Dutch Friends 4ever ---------------------\n---------------------------------------------------------------\n- Bezoek ook eens mijn vrienden op: &lt;a href=&quot; http://www.Film-Test.nl&quot; rel=&quot;nofollow&quot; target=&quot;_NEW&quot;&gt; http://www.Film-Test.nl&lt;/a&gt; --\n----- voor mijn Nederlandse Sync. ondertitels ---- en meer ----\n------- http://www.Film-Test.nl ---- Over Films en meer -------\n---------------------------------------------------------------\n &lt;a href=&quot;\nhttp://i.imgur.com/hhZEq5N.jpg&quot; rel=&quot;nofollow&quot; target=&quot;_NEW&quot;&gt;\nhttp://i.imgur.com/hhZEq5N.jpg&lt;/a&gt; &lt;a href=&quot;\nhttp://i.imgur.com/XQ2DKUm.jpg&quot; rel=&quot;nofollow&quot; target=&quot;_NEW&quot;&gt;\nhttp://i.imgur.com/XQ2DKUm.jpg&lt;/a&gt; &lt;a href=&quot;\nhttp://i.imgur.com/Wbp2SrV.jpg&quot; rel=&quot;nofollow&quot; target=&quot;_NEW&quot;&gt;\nhttp://i.imgur.com/Wbp2SrV.jpg&lt;/a&gt;\n\nGeneral:\n\nComplete name                            : Jack the Giant SlayerJack the Giant Slayer.avi\nFormat                                   : AVI\nFormat/Info                              : Audio Video Interleave\nFile size                                : 1.96 GiB\nDuration                                 : 1h 49mn\nOverall bit rate                         : 2 558 Kbps\n\nVideo:\n\nFormat                                   : MPEG-4 Visual\nFormat profile                           : Simple@L3\nFormat settings, BVOP                    : No\nFormat settings, QPel                    : No\nFormat settings, GMC                     : No warppoints\nFormat settings, Matrix                  : Default (H.263)\nCodec ID                                 : XVID\nCodec ID/Hint                            : XviD\nDuration                                 : 1h 49mn\nSource duration                          : 1h 49mn\nBit rate                                 : 2 163 Kbps\nWidth                                    : 720 pixels\nHeight                                   : 304 pixels\nDisplay aspect ratio                     : 2.35:1\nFrame rate                               : 25.000 fps\nColor space                              : YUV\nChroma subsampling                       : 4:2:0\nBit depth                                : 8 bits\nScan type                                : Progressive\nCompression mode                         : Lossy\nBits/(Pixel*Frame)                       : 0.395\nStream size                              : 1.65 GiB (85%)\nWriting library                          : XviD 1.1.2 (UTC 2006-11-01)\n\nAudio:\n\nFormat                                   : AC-3\nFormat/Info                              : Audio Coding 3\nMode extension                           : CM (complete main)\nFormat settings, Endianness              : Big\nCodec ID                                 : 2000\nDuration                                 : 1h 49mn\nBit rate mode                            : Constant\nBit rate                                 : 384 Kbps\nChannel(s)                               : 6 channels\nChannel positions                        : Front: L C R, Side: L R, LFE\nSampling rate                            : 48.0 KHz\nBit depth                                : 16 bits\nCompression mode                         : Lossy\nStream size                              : 301 MiB (15%)\nAlignment                                : Aligned on interleaves\nInterleave, duration                     : 32 ms (0.80 video frame)","torrent":{"xt":"urn:btih:034710cfaff0ac1901d1ab80e902fbdacb2be4ce","amp;dn":"Jack+the+Giant+Slayer+2013+DVDrip+English+Klam","amp;tr":["udp%3A%2F%2Ftracker.openbittorrent.com%3A80","udp%3A%2F%2Fopen.demonii.com%3A1337","udp%3A%2F%2Ftracker.coppersurfer.tk%3A6969","udp%3A%2F%2Fexodus.desync.com%3A6969"],"infoHash":"034710cfaff0ac1901d1ab80e902fbdacb2be4ce","infoHashBuffer":{"type":"Buffer","data":[3,71,16,207,175,240,172,25,1,209,171,128,233,2,251,218,203,43,228,206]},"announce":[],"urlList":[]}}